<?xml version="1.0" encoding="utf-8"?>
<!-- Generator: Adobe Illustrator 27.5.0, SVG Export Plug-In . SVG Version: 6.00 Build 0)  -->
<svg version="1.1" xmlns="http://www.w3.org/2000/svg" xmlns:xlink="http://www.w3.org/1999/xlink" x="0px" y="0px"
	 viewBox="0 0 500 500" style="enable-background:new 0 0 500 500;" xml:space="preserve">
<g id="Floor">
	<ellipse id="Floor_4_" style="fill:#F5F5F5;" cx="253.868" cy="353.841" rx="233.727" ry="131.956"/>
</g>
<g id="Shadows">
	<path id="Shadow_5_" style="fill:#E6E6E6;" d="M79.062,441.509l-7.174-4.142c-2.261-1.305-2.261-3.422,0-4.727l251.63-145.286
		c2.261-1.305,5.93-1.311,8.195-0.012l7.213,4.136c2.265,1.299,2.268,3.409,0.007,4.715L87.25,441.509
		C84.989,442.815,81.323,442.815,79.062,441.509z"/>
	<ellipse id="Shadow_8_" style="fill:#E0E0E0;" cx="368.756" cy="374.696" rx="73.905" ry="42.669"/>
</g>
<g id="Plants">
	<g id="Plants_5_">
		<g id="XMLID_332_">
			<g id="XMLID_965_">
				<path id="XMLID_346_" style="fill:#BA68C8;" d="M91.66,421.245c-1.042-15.229,0.073-30.697-9.418-51.695
					c-7.965-17.621-21.118-31.5-36.076-32.579c-6.198-0.447-10.68,0.998-13.284,5.409c-4.577,7.752,2.243,16.056,9.539,20.854
					c3.209,2.11,29.614,15.765,36.866,46.058l3.161,17.249l1.05-0.591L91.66,421.245z"/>
				<path id="XMLID_345_" style="opacity:0.25;fill:#FFFFFF;" d="M91.66,421.245c-1.042-15.229,0.073-30.697-9.418-51.695
					c-7.965-17.621-21.118-31.5-36.076-32.579c-6.198-0.447-10.68,0.998-13.284,5.409c-4.577,7.752,2.243,16.056,9.539,20.854
					c3.209,2.11,29.614,15.765,36.866,46.058l3.161,17.249l1.05-0.591L91.66,421.245z"/>
			</g>
			<g id="XMLID_333_">
				<path id="XMLID_339_" style="fill:#FFFFFF;" d="M86.85,416.044c-0.292-0.043-0.531-0.276-0.57-0.581
					c-4.739-36.861-18.732-58.907-44.259-67.575c-0.352-0.12-0.492-0.552-0.34-0.891c0.151-0.338,0.526-0.456,0.891-0.34
					c25.767,8.232,40.245,31.291,45.045,68.634c0.048,0.369-0.213,0.706-0.582,0.754C86.972,416.053,86.91,416.053,86.85,416.044z"
					/>
			</g>
		</g>
		<g id="XMLID_305_">
			<g id="XMLID_326_">
				<path id="XMLID_329_" style="fill:#BA68C8;" d="M77.487,429.513c-1.079-5.287-3.92-11.404-14.664-23.193
					c-9.28-10.181-23.758-15.859-26.587-22.185c-3.399-7.599,2.701-14.575,14.34-13.064c13.989,1.815,28.274,22.635,33.461,54.565
					L77.487,429.513z"/>
				<path id="XMLID_327_" style="opacity:0.65;fill:#FFFFFF;" d="M77.487,429.513c-1.079-5.287-3.92-11.404-14.664-23.193
					c-9.28-10.181-23.758-15.859-26.587-22.185c-3.399-7.599,2.701-14.575,14.34-13.064c13.989,1.815,28.274,22.635,33.461,54.565
					L77.487,429.513z"/>
			</g>
			<path style="fill:#FFFFFF;" d="M45.834,378.258c-0.379-0.078-0.722,0.156-0.798,0.522c-0.076,0.364,0.158,0.722,0.522,0.798
				c9.415,1.969,29.085,19.649,35.45,47.691c0.011,0.046,0.035,0.086,0.056,0.127l1.183-0.7
				C75.769,398.327,56.218,380.429,45.834,378.258z"/>
		</g>
	</g>
	<g id="Plants_3_">
		<g id="XMLID_446_">
			<g id="XMLID_456_">
				<path id="XMLID_458_" style="fill:#BA68C8;" d="M423.1,352.509c0.816-11.916-0.057-24.018,7.369-40.448
					c6.232-13.788,16.524-24.646,28.227-25.491c4.85-0.35,8.356,0.781,10.394,4.232c3.581,6.065-1.755,12.563-7.464,16.317
					c-2.511,1.651-23.171,12.335-28.845,36.038l-2.473,13.496l-0.822-0.463L423.1,352.509z"/>
				<path id="XMLID_457_" style="opacity:0.25;fill:#FFFFFF;" d="M423.1,352.509c0.816-11.916-0.057-24.018,7.369-40.448
					c6.232-13.788,16.524-24.646,28.227-25.491c4.85-0.35,8.356,0.781,10.394,4.232c3.581,6.065-1.755,12.563-7.464,16.317
					c-2.511,1.651-23.171,12.335-28.845,36.038l-2.473,13.496l-0.822-0.463L423.1,352.509z"/>
			</g>
			<g id="XMLID_452_">
				<path id="XMLID_454_" style="fill:#FFFFFF;" d="M426.863,348.44c0.228-0.034,0.416-0.216,0.446-0.455
					c3.708-28.841,14.656-46.091,34.629-52.873c0.276-0.094,0.385-0.432,0.266-0.697c-0.118-0.265-0.412-0.357-0.697-0.266
					c-20.161,6.441-31.488,24.483-35.244,53.701c-0.038,0.289,0.167,0.553,0.455,0.59
					C426.768,348.448,426.817,348.447,426.863,348.44z"/>
			</g>
		</g>
		<g id="XMLID_433_">
			<g id="XMLID_436_">
				<path id="XMLID_440_" style="fill:#BA68C8;" d="M434.19,358.979c0.844-4.137,3.067-8.923,11.474-18.147
					c7.261-7.966,18.589-12.409,20.803-17.358c2.66-5.946-2.113-11.404-11.22-10.222c-10.945,1.421-22.122,17.71-26.181,42.694
					L434.19,358.979z"/>
				<path id="XMLID_437_" style="opacity:0.65;fill:#FFFFFF;" d="M434.19,358.979c0.844-4.137,3.067-8.923,11.474-18.147
					c7.261-7.966,18.589-12.409,20.803-17.358c2.66-5.946-2.113-11.404-11.22-10.222c-10.945,1.421-22.122,17.71-26.181,42.694
					L434.19,358.979z"/>
			</g>
			<g id="XMLID_434_">
				<path id="XMLID_435_" style="fill:#FFFFFF;" d="M431.609,355.348c0.199-0.031,0.369-0.175,0.427-0.382
					c5.912-21.639,19.769-33.516,27.136-35.057c0.285-0.059,0.468-0.339,0.409-0.624c-0.06-0.286-0.328-0.47-0.625-0.409
					c-8.146,1.703-21.904,13.725-27.939,35.812c-0.077,0.281,0.09,0.571,0.37,0.648
					C431.462,355.356,431.537,355.359,431.609,355.348z"/>
			</g>
		</g>
	</g>
</g>
<g id="Clouds">
	<g id="Clouds_4_">
		<g id="XMLID_1007_">
			<path id="XMLID_1008_" style="fill:#EBEBEB;" d="M222.585,58.832l3.137-1.897c-0.027-0.209-0.045-0.425-0.045-0.657v-1.552
				c0-2.761,1.939-6.119,4.33-7.5c0.969-0.559,1.859-0.702,2.581-0.498c0.392-3.924,3.116-8.364,6.425-10.274
				c3.578-2.066,6.478-0.391,6.478,3.74v2.322c0,1.07-0.198,2.2-0.548,3.323l4.449-2.569c1.327-0.766,2.402-0.145,2.402,1.387
				c0,1.532-1.075,3.394-2.402,4.16l-26.807,15.563c-1.326,0.766-2.402,0.145-2.402-1.387
				C220.184,61.461,221.259,59.598,222.585,58.832z"/>
		</g>
		<g id="XMLID_994_">
			<path id="XMLID_1005_" style="fill:#EBEBEB;" d="M203.38,40.408l-3.132,1.205v-6.901c0-5.47-4.363-6.782-9.101-4.047l0,0
				c-4.737,2.735-8.578,9.387-8.578,14.858v1.002c-1.075-0.429-2.463-0.263-3.981,0.614l0,0c-3.409,1.968-6.173,6.755-6.173,10.692
				v0.455l-4.368,2.522c-2.245,1.296-4.065,4.448-4.065,7.041c0,2.592,1.82,3.643,4.065,2.347l35.333-20.399
				c2.245-1.296,4.065-4.449,4.065-7.041C207.446,40.162,205.625,39.111,203.38,40.408z"/>
		</g>
	</g>
</g>
<g id="Arrows">
	<g id="Down_Arrows">
		<polygon style="opacity:0.5;fill:#BA68C8;" points="82.535,110.241 126.999,84.569 104.766,125.411 		"/>
		<polygon style="opacity:0.3;fill:#BA68C8;" points="82.535,91.571 126.999,65.9 104.766,106.741 		"/>
		<polygon style="opacity:0.1;fill:#BA68C8;" points="82.535,72.901 126.999,47.23 104.766,88.071 		"/>
	</g>
</g>
<g id="Window_1_">
	<g id="Window">
		<g id="Window_15_">
			<path id="XMLID_1022_" style="fill:#E0E0E0;" d="M96.964,427.042c-0.074,0.025-1.349,0.986-4.175,1.266
				c-2.188,0.217-4.466-0.115-6.111-1.072c-2.774-1.596-4.983-5.621-4.983-9.008l-0.025-205.643l9.99,5.768v205.618
				c0,2.405,1.208,3.796,2.951,3.796C94.857,427.767,95.808,427.691,96.964,427.042z"/>
			<g id="XMLID_1483_">
				<g>
					<path id="XMLID_3_" style="fill:#FAFAFA;" d="M333.99,284.046c0,3.387-2.36,7.516-5.306,9.209L96.964,427.042
						c-2.921,1.694-5.304,0.316-5.304-3.071V192.169l14.629-8.444c2.921-1.694,147.271-85.025,150.192-86.718l77.508-44.764v26.184
						V284.046z"/>
					<path id="XMLID_1_" style="fill:#EBEBEB;" d="M331.721,56.174v22.253v205.618c0,2.581-1.948,5.966-4.171,7.244L95.826,425.079
						c-0.628,0.364-1.036,0.418-1.224,0.418c-0.585,0-0.672-0.956-0.672-1.526V193.479l13.498-7.791
						c1.471-0.853,39.386-22.743,76.053-43.912c35.736-20.632,72.689-41.966,74.136-42.805L331.721,56.174 M333.99,52.243
						l-77.508,44.764c-2.921,1.693-147.271,85.024-150.192,86.718l-14.629,8.444v231.802c0,2.404,1.2,3.796,2.941,3.796
						c0.712,0,1.515-0.233,2.363-0.725l231.72-133.787c2.946-1.694,5.306-5.822,5.306-9.209V78.427V52.243L333.99,52.243z"/>
				</g>
			</g>
			<path style="fill:#EBEBEB;" d="M308.301,165.534h0.005H308.301 M306.367,166.65l0.003,105.761
				c-0.015,0.097-0.128,0.293-0.176,0.336L130.084,374.425l-0.003-105.76c0.015-0.097,0.128-0.293,0.176-0.336L306.367,166.65
				 M307.796,163.54c-0.165,0-0.351,0.054-0.548,0.168L129.203,266.503c-0.678,0.392-1.228,1.344-1.228,2.127l0.001,108.029
				c0,0.556,0.277,0.877,0.68,0.877c0.165,0,0.351-0.054,0.549-0.168l178.045-102.795c0.678-0.392,1.228-1.344,1.228-2.127
				l-0.002-108.029C308.475,163.861,308.198,163.54,307.796,163.54L307.796,163.54z"/>
			<g>
				<path id="XMLID_1021_" style="fill:#263238;" d="M86.667,208.521c-2.752-1.59-4.984-5.626-4.984-9.015l-0.008-24.999
					c0-3.389,2.385-7.51,5.321-9.204l231.716-133.79c2.935-1.694,7.546-1.779,10.299-0.19c2.753,1.59,4.985,5.626,4.975,9.012
					l0.004,25.004c0.01,3.392-2.37,7.508-5.306,9.202L96.964,208.328C94.029,210.022,89.42,210.111,86.667,208.521z"/>
				<path id="XMLID_1020_" style="fill:#455A64;" d="M333.937,39.471c-0.368-2.749-2.602-3.756-5.253-2.209L96.963,171.051
					c-1.448,0.859-2.773,2.307-3.756,3.976l-9.965-5.768c0.982-1.669,2.282-3.097,3.755-3.956L318.719,31.518
					c2.921-1.694,7.536-1.792,10.285-0.196C331.531,32.795,333.618,36.28,333.937,39.471z"/>
				<path id="XMLID_1470_" style="fill:#37474F;" d="M333.986,40.33l0.004,11.914l-77.508,44.764
					c-2.921,1.693-147.271,85.024-150.192,86.718l-14.629,8.444v-11.913c0-3.387,2.381-7.511,5.302-9.205L328.684,37.262
					C331.605,35.568,333.986,36.943,333.986,40.33z"/>
				<g id="XMLID_1428_">
					<path id="XMLID_1463_" style="fill:#FFFFFF;" d="M325.095,44.981c1.718-0.992,3.111-0.188,3.111,1.796
						c0,1.984-1.393,4.396-3.111,5.389c-1.719,0.992-3.111,0.188-3.111-1.796C321.983,48.386,323.376,45.973,325.095,44.981z"/>
					<path id="XMLID_1431_" style="fill:#FFFFFF;" d="M313.893,51.439c1.718-0.992,3.111-0.188,3.111,1.797
						c0,1.984-1.393,4.397-3.111,5.389c-1.718,0.992-3.111,0.188-3.111-1.796C310.782,54.844,312.175,52.431,313.893,51.439z"/>
					<path id="XMLID_1429_" style="fill:#FFFFFF;" d="M302.692,57.897c1.719-0.992,3.111-0.188,3.111,1.796
						c0,1.984-1.393,4.397-3.111,5.389c-1.718,0.992-3.111,0.188-3.111-1.796C299.581,61.302,300.974,58.889,302.692,57.897z"/>
				</g>
			</g>
			<g>
				<g>
					<path id="XMLID_1427_" style="fill:#E0E0E0;" d="M100.669,186.952c1.481-0.859,1.978-2.164,2.688-4.666l1.633-5.633
						c0.592-2.265,1.207-3.808,2.7-4.666l64.851-37.449c1.493-0.859,2.658-0.953,3.794,0.924l1.97,3.631
						c0.845,1.461,1.268,2.319,2.749,1.461l50.355-29.065L333.99,52.243v26.196L91.66,218.365v-26.196L100.669,186.952"/>
					<polygon id="XMLID_1426_" style="fill:#E0E0E0;" points="91.66,192.169 91.66,218.353 81.671,212.585 81.671,186.425 					"/>
					<polygon id="XMLID_1018_" style="opacity:0.15;" points="91.66,192.169 91.66,218.353 81.671,212.585 81.671,186.425 					"/>
				</g>
				<g>
					<path id="XMLID_1425_" style="opacity:0.3;" d="M105.131,197.359l-4.666,2.694l1.779-3.422c0.156-0.3,0.173-0.674,0.035-0.836
						c-0.136-0.163-0.374-0.048-0.529,0.251l-2.531,4.869c-0.003,0.006-0.004,0.013-0.007,0.019
						c-0.028,0.056-0.049,0.117-0.068,0.18c-0.007,0.02-0.016,0.039-0.021,0.059c-0.021,0.083-0.033,0.168-0.033,0.252
						c0,0.083,0.012,0.154,0.033,0.214c0.005,0.015,0.014,0.022,0.021,0.035c0.019,0.041,0.04,0.078,0.068,0.102
						c0.003,0.003,0.004,0.008,0.007,0.01l2.531,1.946c0.071,0.055,0.159,0.051,0.247,0c0.104-0.06,0.208-0.187,0.282-0.361
						c0.137-0.319,0.121-0.675-0.035-0.795l-1.779-1.368l4.666-2.694c0.207-0.12,0.375-0.475,0.375-0.795
						C105.506,197.401,105.338,197.24,105.131,197.359z"/>
					<path id="XMLID_1424_" style="opacity:0.3;" d="M109.028,195.109l4.666-2.694l-1.779-1.368
						c-0.156-0.12-0.172-0.475-0.035-0.795c0.136-0.32,0.374-0.479,0.529-0.36l2.531,1.946c0.003,0.002,0.004,0.008,0.007,0.011
						c0.028,0.024,0.049,0.061,0.068,0.102c0.006,0.013,0.016,0.02,0.021,0.035c0.02,0.06,0.033,0.131,0.033,0.214
						c0,0.083-0.013,0.168-0.033,0.251c-0.005,0.02-0.015,0.039-0.021,0.059c-0.019,0.063-0.04,0.124-0.068,0.18
						c-0.003,0.006-0.004,0.013-0.007,0.019l-2.531,4.869c-0.071,0.137-0.159,0.234-0.247,0.285
						c-0.104,0.06-0.208,0.053-0.282-0.035c-0.137-0.161-0.121-0.536,0.035-0.836l1.779-3.422l-4.666,2.694
						c-0.207,0.12-0.375-0.042-0.375-0.361C108.653,195.585,108.821,195.229,109.028,195.109z"/>
					<path id="XMLID_1423_" style="opacity:0.3;" d="M123.933,181.673c-0.029-0.282-0.274-0.245-0.398,0.059l-0.639,1.563
						c-1.089-0.119-2.41,0.946-3.302,2.834c-1.155,2.447-1.155,5.341,0,6.453c0.578,0.556,1.337,0.563,2.096,0.124
						c0.759-0.438,1.518-1.321,2.095-2.544c0.147-0.31,0.147-0.676,0-0.817c-0.146-0.141-0.384-0.004-0.531,0.306
						c-0.863,1.824-2.267,2.638-3.13,1.807c-0.863-0.83-0.863-2.992,0-4.819c0.614-1.299,1.497-2.068,2.268-2.116l-0.482,1.178
						c-0.125,0.305-0.011,0.59,0.186,0.462l1.903-1.242c0.134-0.087,0.232-0.33,0.213-0.522L123.933,181.673z"/>
					<path id="XMLID_1422_" style="opacity:0.3;" d="M171.589,142.898l1.87-3.958c0.221-0.468,0.221-1.019,0-1.232
						c-0.221-0.213-0.579-0.006-0.8,0.462l-1.87,3.958l-1.87-1.799c-0.221-0.213-0.579-0.006-0.8,0.462
						c-0.221,0.468-0.221,1.019,0,1.232l1.87,1.8l-1.87,3.958c-0.221,0.468-0.221,1.019,0,1.232c0.11,0.106,0.255,0.108,0.4,0.024
						c0.145-0.084,0.289-0.252,0.4-0.486l1.87-3.958l1.87,1.8c0.111,0.106,0.255,0.108,0.4,0.024c0.145-0.083,0.29-0.252,0.4-0.486
						c0.221-0.468,0.221-1.019,0-1.232L171.589,142.898z"/>
					<path id="XMLID_1421_" style="fill:#FAFAFA;" d="M134.262,183.47v-5.174c0-1.63,1.145-3.613,2.557-4.428L312.036,72.477
						c1.412-0.815,2.557-0.154,2.557,1.476l0,5.173c0,1.631-1.145,3.613-2.557,4.428L136.819,184.946
						C135.407,185.761,134.262,185.1,134.262,183.47z"/>
					<g id="XMLID_1420_">
						<path style="fill:#E0E0E0;" d="M308.558,83.951c-0.083,0-0.161-0.017-0.23-0.045c-0.219-0.091-0.435-0.341-0.383-0.773
							l0.252-2.099l-0.986-0.711c-0.171-0.124-0.267-0.326-0.271-0.57c-0.005-0.337,0.165-0.696,0.422-0.895l1.502-1.158
							c0.012-0.01,0.047-0.054,0.066-0.117l0.671-2.201c0.123-0.403,0.426-0.69,0.756-0.714c0.258-0.023,0.478,0.117,0.589,0.354
							l0.565,1.198l1.269-0.487c0.247-0.096,0.506-0.036,0.676,0.155c0.219,0.247,0.233,0.662,0.035,1.035l-1.086,2.039
							c-0.031,0.057-0.038,0.109-0.037,0.124l0.257,1.844c0.049,0.361-0.126,0.722-0.321,0.921
							c-0.174,0.176-0.386,0.261-0.594,0.232l-1.227-0.152l-1.326,1.692C308.966,83.865,308.748,83.951,308.558,83.951z
							 M307.835,79.681l0.982,0.708c0.2,0.146,0.299,0.409,0.264,0.705l-0.167,1.398l0.887-1.132
							c0.184-0.235,0.418-0.356,0.674-0.323l1.227,0.152c0.027-0.045,0.049-0.107,0.045-0.138l-0.257-1.846
							c-0.029-0.211,0.02-0.452,0.133-0.662l0.95-1.783l-0.978,0.375c-0.31,0.118-0.637-0.014-0.777-0.309l-0.444-0.943
							l-0.596,1.958c-0.07,0.227-0.205,0.43-0.371,0.559l-1.503,1.159C307.875,79.581,307.849,79.634,307.835,79.681z"/>
					</g>
					<g id="XMLID_1413_" style="opacity:0.2;">
						<g id="XMLID_1418_">
							<path id="XMLID_1419_" d="M319.464,70.474c-0.292,0-0.574-0.151-0.73-0.421c-0.233-0.403-0.094-0.918,0.308-1.15l6.841-3.95
								c0.405-0.233,0.918-0.094,1.15,0.308c0.233,0.403,0.094,0.918-0.308,1.15l-6.841,3.95
								C319.751,70.437,319.606,70.474,319.464,70.474z"/>
						</g>
						<g id="XMLID_1416_">
							<path id="XMLID_1417_" d="M319.464,74.425c-0.292,0-0.574-0.151-0.73-0.421c-0.233-0.403-0.094-0.918,0.308-1.15l6.841-3.95
								c0.405-0.235,0.918-0.094,1.15,0.308c0.233,0.403,0.094,0.918-0.308,1.15l-6.841,3.95
								C319.751,74.388,319.606,74.425,319.464,74.425z"/>
						</g>
						<g id="XMLID_1414_">
							<path id="XMLID_1415_" d="M319.464,78.376c-0.292,0-0.574-0.151-0.73-0.421c-0.233-0.403-0.094-0.918,0.308-1.15l6.841-3.95
								c0.405-0.235,0.918-0.094,1.15,0.308c0.233,0.403,0.094,0.918-0.308,1.15l-6.841,3.95
								C319.751,78.339,319.606,78.376,319.464,78.376z"/>
						</g>
					</g>
				</g>
			</g>
		</g>
		<g>
			<g>
				<path style="fill:#BA68C8;" d="M258.201,141.161l50.076-28.911c1.484-0.857,2.687-0.162,2.687,1.551l0.002,11.257
					c0,1.713-1.202,3.797-2.686,4.654l-50.077,28.91c-1.484,0.857-2.687,0.162-2.687-1.551l-0.001-11.256
					C255.514,144.101,256.717,142.018,258.201,141.161z"/>
				<path style="opacity:0.3;fill:#FFFFFF;" d="M258.201,141.161l50.076-28.911c1.484-0.857,2.687-0.162,2.687,1.551l0.002,11.257
					c0,1.713-1.202,3.797-2.686,4.654l-50.077,28.91c-1.484,0.857-2.687,0.162-2.687-1.551l-0.001-11.256
					C255.514,144.101,256.717,142.018,258.201,141.161z"/>
			</g>
			<g>
				<path style="fill:#BA68C8;" d="M197.711,176.034l50.076-28.911c1.484-0.857,2.687-0.162,2.687,1.551l0.002,11.257
					c0,1.713-1.202,3.797-2.686,4.654l-50.077,28.911c-1.484,0.857-2.687,0.162-2.687-1.551l-0.001-11.256
					C195.025,178.974,196.227,176.891,197.711,176.034z"/>
				<path style="opacity:0.3;fill:#FFFFFF;" d="M197.711,176.034l50.076-28.911c1.484-0.857,2.687-0.162,2.687,1.551l0.002,11.257
					c0,1.713-1.202,3.797-2.686,4.654l-50.077,28.911c-1.484,0.857-2.687,0.162-2.687-1.551l-0.001-11.256
					C195.025,178.974,196.227,176.891,197.711,176.034z"/>
			</g>
		</g>
	</g>
	<g id="Menu_Button">
		<g>
			<path style="fill:#BA68C8;" d="M189.965,189.492c0-0.858-0.302-1.461-0.79-1.741c-0.486-0.279-4.549-2.64-5.038-2.919
				c-0.486-0.277-1.155-0.235-1.894,0.191l-65.183,37.621c-1.484,0.857-2.687,2.94-2.687,4.654l0.001,11.256
				c0,0.848,0.294,1.446,0.772,1.73c0.487,0.29,4.579,2.647,5.069,2.926c0.486,0.276,1.155,0.234,1.893-0.192l65.194-37.603
				c1.484-0.857,2.686-2.94,2.686-4.654L189.965,189.492z"/>
			<path style="opacity:0.15;" d="M189.965,189.492c0-0.858-0.302-1.461-0.79-1.741c-0.486-0.279-4.549-2.64-5.038-2.919
				c-0.486-0.277-1.155-0.235-1.894,0.191l-65.183,37.621c-1.484,0.857-2.687,2.94-2.687,4.654l0.001,11.256
				c0,0.848,0.294,1.446,0.772,1.73c0.487,0.29,4.579,2.647,5.069,2.926c0.486,0.276,1.155,0.234,1.893-0.192l65.194-37.603
				c1.484-0.857,2.686-2.94,2.686-4.654L189.965,189.492z"/>
			<path style="fill:#BA68C8;" d="M122.1,225.557l65.171-37.616c0.741-0.428,1.411-0.469,1.897-0.19
				c0.488,0.28,0.79,0.883,0.79,1.741l0.024,11.27c0,1.714-1.202,3.797-2.686,4.654l-65.194,37.603
				c-0.738,0.426-1.407,0.468-1.893,0.192c-0.491-0.279-0.794-0.883-0.794-1.744l-0.001-11.256
				C119.413,228.497,120.616,226.413,122.1,225.557z"/>
			<path style="fill:#BA68C8;" d="M189.176,187.754c-0.484-0.285-1.154-0.236-1.899,0.186l-65.166,37.614
				c-0.745,0.422-1.415,1.167-1.911,2.01l-5.038-2.916c0.484-0.844,1.154-1.576,1.899-2.01l65.178-37.618
				c0.745-0.422,1.415-0.472,1.899-0.186C184.621,185.106,188.692,187.469,189.176,187.754z"/>
			<path style="opacity:0.3;fill:#FFFFFF;" d="M189.176,187.754c-0.484-0.285-1.154-0.236-1.899,0.186l-65.166,37.614
				c-0.745,0.422-1.415,1.167-1.911,2.01l-5.038-2.916c0.484-0.844,1.154-1.576,1.899-2.01l65.178-37.618
				c0.745-0.422,1.415-0.472,1.899-0.186C184.621,185.106,188.692,187.469,189.176,187.754z"/>
		</g>
		<g>
			<path style="fill:#FAFAFA;" d="M134.435,227.053l1.605-5.22c0.023-0.057,0.061-0.148,0.114-0.275
				c0.053-0.126,0.137-0.221,0.249-0.287l0.574-0.332c0.062-0.035,0.115-0.032,0.16,0.011c0.045,0.044,0.067,0.114,0.067,0.209
				v8.403c0,0.095-0.023,0.191-0.067,0.286c-0.045,0.096-0.099,0.161-0.16,0.197l-0.684,0.395c-0.062,0.036-0.115,0.032-0.161-0.011
				c-0.045-0.043-0.067-0.113-0.067-0.208v-5.086l-1.098,3.56c-0.028,0.086-0.067,0.18-0.119,0.284
				c-0.05,0.103-0.115,0.177-0.194,0.223l-0.439,0.254c-0.079,0.046-0.143,0.046-0.194,0.002c-0.051-0.044-0.09-0.093-0.118-0.147
				l-1.099-2.292v5.086c0,0.095-0.023,0.191-0.068,0.286c-0.045,0.096-0.098,0.161-0.16,0.197l-0.684,0.395
				c-0.063,0.036-0.116,0.032-0.161-0.012c-0.045-0.042-0.068-0.112-0.068-0.208v-8.403c0-0.095,0.023-0.191,0.068-0.287
				c0.045-0.095,0.098-0.16,0.161-0.196l0.574-0.332c0.112-0.065,0.195-0.066,0.249-0.001c0.054,0.066,0.092,0.112,0.114,0.143
				L134.435,227.053z"/>
			<path style="fill:#FAFAFA;" d="M138.229,225.942c0-0.486,0.048-0.971,0.144-1.456c0.095-0.485,0.233-0.937,0.414-1.358
				c0.18-0.42,0.398-0.795,0.654-1.126c0.257-0.33,0.543-0.586,0.858-0.768c0.315-0.182,0.602-0.258,0.857-0.228
				c0.256,0.03,0.475,0.143,0.654,0.337c0.181,0.195,0.32,0.466,0.418,0.813c0.099,0.346,0.149,0.74,0.149,1.182v0.585
				c0,0.096-0.023,0.191-0.068,0.287c-0.045,0.095-0.099,0.161-0.161,0.196l-2.822,1.629c0,0.2,0.026,0.36,0.08,0.481
				c0.053,0.121,0.126,0.207,0.216,0.26c0.09,0.052,0.194,0.07,0.312,0.053c0.119-0.017,0.24-0.06,0.364-0.132
				c0.18-0.104,0.327-0.216,0.439-0.338c0.113-0.121,0.205-0.246,0.279-0.376c0.062-0.105,0.113-0.182,0.152-0.23
				c0.039-0.049,0.092-0.092,0.161-0.132l0.675-0.39c0.063-0.036,0.117-0.033,0.165,0.008c0.048,0.042,0.069,0.113,0.063,0.211
				c-0.005,0.125-0.049,0.306-0.131,0.544c-0.082,0.238-0.204,0.495-0.368,0.771c-0.163,0.277-0.364,0.549-0.603,0.817
				c-0.24,0.269-0.517,0.494-0.832,0.676c-0.316,0.182-0.602,0.263-0.858,0.242c-0.256-0.022-0.475-0.136-0.654-0.344
				c-0.181-0.208-0.318-0.499-0.414-0.873C138.277,226.909,138.229,226.462,138.229,225.942z M140.3,222.795
				c-0.163,0.094-0.303,0.212-0.418,0.353c-0.116,0.14-0.212,0.291-0.292,0.454c-0.078,0.163-0.139,0.328-0.182,0.496
				c-0.043,0.167-0.069,0.319-0.08,0.455l1.909-1.102c-0.011-0.124-0.032-0.248-0.064-0.373c-0.031-0.126-0.082-0.226-0.151-0.304
				c-0.071-0.076-0.163-0.118-0.279-0.125C140.627,222.643,140.48,222.691,140.3,222.795z"/>
			<path style="fill:#FAFAFA;" d="M147.422,223.666c0,0.095-0.023,0.191-0.067,0.286c-0.046,0.096-0.1,0.161-0.161,0.197
				l-0.643,0.371c-0.062,0.036-0.115,0.032-0.16-0.012c-0.046-0.043-0.068-0.113-0.068-0.208v-3.304
				c0-0.521-0.078-0.892-0.236-1.113c-0.158-0.221-0.4-0.237-0.727-0.049c-0.299,0.172-0.535,0.464-0.705,0.875
				c-0.172,0.411-0.258,0.878-0.258,1.398v3.304c0,0.095-0.023,0.191-0.068,0.286c-0.045,0.096-0.099,0.162-0.16,0.197l-0.643,0.371
				c-0.062,0.036-0.115,0.032-0.161-0.012c-0.045-0.043-0.067-0.113-0.067-0.208v-6.062c0-0.095,0.022-0.19,0.067-0.286
				c0.045-0.095,0.099-0.161,0.161-0.197l0.643-0.371c0.062-0.036,0.115-0.031,0.16,0.011c0.046,0.044,0.068,0.113,0.068,0.208
				v0.299c0.146-0.31,0.318-0.596,0.515-0.857c0.196-0.261,0.43-0.47,0.701-0.626c0.344-0.198,0.631-0.282,0.862-0.251
				c0.23,0.032,0.417,0.146,0.557,0.342c0.141,0.196,0.241,0.461,0.3,0.796c0.059,0.335,0.089,0.706,0.089,1.114V223.666z"/>
			<path style="fill:#FAFAFA;" d="M148.503,216.979c0-0.095,0.023-0.19,0.067-0.286c0.044-0.095,0.098-0.161,0.161-0.197
				l0.642-0.371c0.062-0.035,0.115-0.031,0.161,0.012c0.044,0.044,0.067,0.113,0.067,0.208v3.305c0,0.52,0.072,0.895,0.216,1.124
				c0.143,0.229,0.378,0.25,0.705,0.061c0.299-0.172,0.527-0.46,0.685-0.863c0.157-0.403,0.236-0.865,0.236-1.385v-3.305
				c0-0.095,0.023-0.19,0.068-0.286c0.045-0.095,0.098-0.161,0.16-0.197l0.642-0.371c0.062-0.036,0.115-0.031,0.161,0.011
				c0.044,0.044,0.067,0.113,0.067,0.208v6.062c0,0.095-0.023,0.191-0.067,0.286c-0.046,0.096-0.1,0.161-0.161,0.197l-0.642,0.371
				c-0.062,0.036-0.115,0.032-0.16-0.012c-0.045-0.043-0.068-0.113-0.068-0.208v-0.299c-0.13,0.275-0.289,0.547-0.482,0.818
				c-0.191,0.271-0.422,0.484-0.692,0.641c-0.344,0.198-0.628,0.28-0.854,0.246c-0.225-0.035-0.406-0.152-0.541-0.351
				c-0.135-0.2-0.23-0.467-0.287-0.804c-0.056-0.336-0.084-0.708-0.084-1.115V216.979z"/>
		</g>
		<g>
			<polygon style="fill:#FAFAFA;" points="175.939,206.171 172.222,203.36 172.892,202.095 175.629,204.164 178.367,198.934 
				179.347,199.674 			"/>
		</g>
	</g>
</g>
<g id="Dropdown_Menu_2">
	<g id="Dropdown_Menu_1_">
		<g>
			<path style="fill:#E0E0E0;" d="M253.158,234.48c0-0.858-0.302-1.461-0.79-1.741c-0.486-0.279-4.538-2.623-5.028-2.902
				c-0.486-0.277-1.164-0.244-1.904,0.183l-42.684,24.636c-1.484,0.857-2.687,1.553-2.687,1.553l0.001,84.206
				c0,0.848,0.294,1.446,0.772,1.73c0.487,0.29,4.579,2.647,5.069,2.926c0.486,0.276,1.155,0.234,1.893-0.192l42.695-24.627
				c1.484-0.857,2.686-2.94,2.686-4.654L253.158,234.48z"/>
			<g>
				<path style="fill:#F0F0F0;" d="M247.341,229.839c-0.484-0.285-1.163-0.244-1.908,0.178l-42.68,24.634
					c-0.745,0.434-2.688,1.559-2.688,1.559l-7.963,4.597c-0.837,0.483-0.768,1.657,0.006,2.088c0.091,0.051,4.492,2.815,5.343,3.029
					l7.656,1.927l0-8.731c0.001,0,1.954-1.131,2.699-1.553l42.666-24.638c0.745-0.422,1.415-0.471,1.899-0.186
					C251.886,232.457,247.825,230.112,247.341,229.839z"/>
				<g>
					<path style="fill:#FAFAFA;" d="M253.152,234.48c0-0.858-0.302-1.461-0.79-1.741c-0.486-0.279-1.157-0.238-1.897,0.19
						l-45.358,26.191l-7.963,4.597c-0.833,0.481-0.769,1.646-0.006,2.082c0.094,0.054,0.199,0.096,0.314,0.125l7.655,1.926
						l0.001,75.478c0,0.861,0.304,1.465,0.794,1.743c0.486,0.276,1.154,0.234,1.893-0.192l42.695-24.627
						c1.484-0.857,2.686-2.94,2.686-4.654L253.152,234.48z"/>
					<path style="fill:#E0E0E0;" d="M251.689,233.892c0.027,0.025,0.127,0.197,0.127,0.588l0.024,81.119
						c0,1.242-0.943,2.876-2.018,3.497l-42.695,24.627c-0.294,0.17-0.47,0.188-0.557,0.193c-0.027-0.025-0.127-0.197-0.127-0.588
						l-0.001-75.478v-1.041l-1.01-0.254l-7.341-1.843l7.683-4.436l45.358-26.191c0.294-0.17,0.47-0.188,0.532-0.188L251.689,233.892
						 M251.664,232.562c-0.361,0-0.769,0.118-1.2,0.367l-45.358,26.191l-7.963,4.597c-0.833,0.481-0.769,1.646-0.006,2.082
						c0.094,0.054,0.199,0.096,0.314,0.125l7.655,1.926l0.001,75.478c0,0.861,0.304,1.465,0.794,1.743
						c0.202,0.115,0.436,0.175,0.693,0.175c0.361,0,0.769-0.118,1.2-0.367l42.695-24.627c1.484-0.857,2.686-2.94,2.686-4.654
						l-0.024-81.12c0-0.858-0.302-1.461-0.79-1.741C252.159,232.623,251.923,232.562,251.664,232.562L251.664,232.562z"/>
				</g>
			</g>
		</g>
		<g>
			<polygon style="fill:#E0E0E0;" points="205.107,310.79 205.107,312.223 253.167,284.476 253.166,283.043 			"/>
			<polygon style="fill:#E0E0E0;" points="205.107,329.685 253.172,301.935 253.171,300.502 205.107,328.253 			"/>
			<polygon style="fill:#E0E0E0;" points="205.106,275.865 205.106,277.298 253.156,249.557 253.156,248.124 			"/>
			<polygon style="fill:#E0E0E0;" points="205.107,293.328 205.107,294.761 253.161,267.016 253.161,265.583 			"/>
		</g>
		<g>
			<polygon style="fill:#BA68C8;" points="206.348,294.045 251.966,267.706 251.966,283.86 206.348,310.073 			"/>
			<polygon style="opacity:0.6;fill:#FFFFFF;" points="206.348,294.045 251.966,267.706 251.966,283.86 206.348,310.073 			"/>
		</g>
		<g>
			<g>
				<path style="fill:#BA68C8;" d="M215.188,294.033l20.163-11.641c0.89-0.514,1.612-0.097,1.612,0.931l0,0.857
					c0,1.028-0.722,2.278-1.612,2.792l-20.163,11.641c-0.89,0.514-1.612,0.097-1.612-0.931l0-0.857
					C213.576,295.797,214.298,294.547,215.188,294.033z"/>
			</g>
			<path style="fill:#E0E0E0;" d="M215.188,276.596l20.163-11.641c0.89-0.514,1.612-0.097,1.612,0.931l0,0.857
				c0,1.028-0.722,2.278-1.612,2.792l-20.163,11.641c-0.89,0.514-1.612,0.097-1.612-0.931l0-0.857
				C213.576,278.36,214.298,277.11,215.188,276.596z"/>
			<path style="fill:#E0E0E0;" d="M215.188,259.12l20.163-11.641c0.89-0.514,1.612-0.097,1.612,0.931l0,0.857
				c0,1.028-0.722,2.278-1.612,2.792L215.189,263.7c-0.89,0.514-1.612,0.097-1.612-0.931l0-0.857
				C213.576,260.884,214.298,259.634,215.188,259.12z"/>
			<path style="fill:#E0E0E0;" d="M215.188,328.964l20.163-11.641c0.89-0.514,1.612-0.097,1.612,0.931l0,0.857
				c0,1.028-0.722,2.278-1.612,2.792l-20.163,11.641c-0.89,0.514-1.612,0.097-1.612-0.931l0-0.857
				C213.576,330.728,214.298,329.478,215.188,328.964z"/>
			<path style="fill:#E0E0E0;" d="M215.188,311.488l20.163-11.641c0.89-0.514,1.612-0.097,1.612,0.931l0,0.857
				c0,1.028-0.722,2.278-1.612,2.792l-20.163,11.641c-0.89,0.514-1.612,0.097-1.612-0.931l0-0.857
				C213.576,313.252,214.298,312.002,215.188,311.488z"/>
		</g>
	</g>
</g>
<g id="Dropdown_Menu_1">
	<g id="Dropdown_Menu">
		<g>
			<path style="fill:#E0E0E0;" d="M189.965,224.399c0-0.858-0.302-1.461-0.79-1.741c-0.486-0.279-4.538-2.623-5.028-2.902
				c-0.486-0.277-1.164-0.244-1.904,0.183l-65.184,37.612c-1.484,0.857-2.687,2.94-2.687,4.654l0.001,81.106
				c0,0.848,0.294,1.446,0.772,1.73c0.487,0.29,4.579,2.647,5.069,2.926c0.486,0.276,1.155,0.234,1.893-0.192l65.194-37.603
				c1.484-0.857,2.686-2.94,2.686-4.654L189.965,224.399z"/>
			<path style="fill:#F0F0F0;" d="M189.176,222.662c-0.484-0.285-1.154-0.236-1.899,0.186l-65.166,37.614
				c-0.745,0.422-1.415,1.167-1.911,2.01l-5.038-2.916c0.484-0.844,1.154-1.576,1.899-2.01l65.179-37.61
				c0.745-0.422,1.424-0.463,1.908-0.178C184.632,220.031,188.692,222.376,189.176,222.662z"/>
			<g>
				<path style="fill:#E0E0E0;" d="M179.902,227.106l-2.504-4.336c-0.09-0.155-0.21-0.272-0.346-0.351
					c-0.486-0.282-4.898-2.839-5.032-2.918c-0.487-0.288-1.181-0.096-1.391,0.512l-2.866,8.281l5.039,2.923L179.902,227.106z"/>
			</g>
			<g>
				<path style="fill:#FAFAFA;" d="M189.958,224.399c0-0.858-0.302-1.461-0.79-1.741c-0.486-0.279-1.157-0.238-1.897,0.19
					l-7.371,4.254l-2.502-4.333c-0.409-0.709-1.463-0.609-1.73,0.165l-2.858,8.26l-50.71,29.27c-1.484,0.857-2.687,2.94-2.687,4.654
					l0.001,81.106c0,0.861,0.304,1.465,0.794,1.744c0.486,0.276,1.155,0.234,1.893-0.192l65.194-37.603
					c1.484-0.857,2.687-2.94,2.686-4.654L189.958,224.399z"/>
				<path style="fill:#E0E0E0;" d="M188.496,223.811c0.033,0.03,0.127,0.203,0.127,0.588l0.024,81.119
					c0,1.242-0.943,2.876-2.018,3.496l-65.194,37.603c-0.294,0.17-0.47,0.188-0.557,0.194c-0.027-0.025-0.127-0.197-0.127-0.588
					l-0.001-81.106c0-1.242,0.943-2.876,2.018-3.497l50.71-29.27l0.432-0.249l0.163-0.471l2.586-7.473l2.085,3.612l0.668,1.156
					l1.157-0.667l7.371-4.255C188.232,223.835,188.409,223.817,188.496,223.811 M176.574,222.292c-0.381,0-0.76,0.222-0.905,0.643
					l-2.858,8.26l-50.71,29.27c-1.484,0.857-2.687,2.94-2.687,4.654l0.001,81.106c0,0.861,0.304,1.465,0.794,1.744
					c0.202,0.115,0.436,0.175,0.693,0.175c0.361,0,0.769-0.118,1.2-0.367l65.194-37.603c1.484-0.857,2.687-2.94,2.686-4.654
					l-0.024-81.12c0-0.858-0.302-1.461-0.79-1.741c-0.203-0.117-0.438-0.177-0.697-0.177c-0.361,0-0.769,0.118-1.2,0.367
					l-7.371,4.254l-2.502-4.333C177.212,222.447,176.892,222.292,176.574,222.292L176.574,222.292z"/>
			</g>
		</g>
		<g>
			<polygon style="fill:#E0E0E0;" points="119.413,278.775 119.413,280.208 189.98,239.466 189.98,238.033 			"/>
			<polygon style="fill:#E0E0E0;" points="119.414,313.7 119.414,315.132 189.981,274.39 189.981,272.957 			"/>
			<polygon style="fill:#E0E0E0;" points="119.414,332.594 189.982,291.852 189.981,290.419 119.414,331.162 			"/>
			<polygon style="fill:#E0E0E0;" points="119.413,296.237 119.413,297.67 189.981,256.928 189.981,255.495 			"/>
		</g>
		<polygon style="fill:#BA68C8;" points="120.671,296.954 188.763,257.631 188.743,273.672 120.671,312.984 		"/>
		<polygon style="opacity:0.6;fill:#FFFFFF;" points="120.671,296.954 188.763,257.631 188.743,273.672 120.671,312.984 		"/>
		<g>
			<g>
				<path style="fill:#BA68C8;" d="M131.106,296.023l32.062-18.511c0.89-0.514,1.612-0.097,1.612,0.931v0.857
					c0,1.028-0.722,2.278-1.612,2.792l-32.062,18.511c-0.89,0.514-1.612,0.097-1.612-0.931l0-0.857
					C129.494,297.788,130.216,296.537,131.106,296.023z"/>
			</g>
			<path style="fill:#E0E0E0;" d="M131.106,278.586l32.062-18.511c0.89-0.514,1.612-0.097,1.612,0.931v0.857
				c0,1.028-0.722,2.278-1.612,2.792l-32.062,18.511c-0.89,0.514-1.612,0.097-1.612-0.931l0-0.857
				C129.494,280.35,130.216,279.1,131.106,278.586z"/>
			<path style="fill:#E0E0E0;" d="M131.106,261.111l32.062-18.511c0.89-0.514,1.612-0.097,1.612,0.931v0.857
				c0,1.028-0.722,2.278-1.612,2.792l-32.062,18.511c-0.89,0.514-1.612,0.097-1.612-0.931l0-0.857
				C129.494,262.875,130.216,261.625,131.106,261.111z"/>
			<path style="fill:#E0E0E0;" d="M131.106,330.954l32.062-18.511c0.89-0.514,1.612-0.097,1.612,0.931v0.857
				c0,1.028-0.722,2.278-1.612,2.792l-32.062,18.511c-0.89,0.514-1.612,0.097-1.612-0.931l0-0.857
				C129.494,332.719,130.216,331.468,131.106,330.954z"/>
			<path style="fill:#E0E0E0;" d="M131.106,313.479l32.062-18.511c0.89-0.514,1.612-0.097,1.612,0.931v0.857
				c0,1.028-0.722,2.278-1.612,2.792l-32.062,18.511c-0.89,0.514-1.612,0.097-1.612-0.931l0-0.857
				C129.494,315.243,130.216,313.993,131.106,313.479z"/>
		</g>
	</g>
</g>
<g id="Cursor">
	<g id="Arrow">
		<path style="fill:#BA68C8;" d="M266.536,296.407l-15.047-18.027c-0.095-0.114-0.187-0.195-0.271-0.244
			c-0.307-0.178-3.526-2.035-3.61-2.084c-0.309-0.18-0.53,0.059-0.531,0.651l-0.08,36.431c-0.001,0.308,0.048,0.486,0.132,0.535
			c0.12,0.071,3.529,2.039,3.614,2.086c0.12,0.068,0.311-0.13,0.526-0.59l2.583-5.523l1.473,5.257
			c0.058,0.207,0.158,0.35,0.287,0.429c0.295,0.18,3.489,2.014,3.623,2.092c0.295,0.17,0.733,0.012,1.153-0.471l2.084-2.395
			c0.61-0.701,0.951-1.823,0.759-2.505l-2.845-10.156c-0.191-0.682,0.342-1.546,1.191-1.93l4.219-1.907
			C266.645,297.673,266.976,296.935,266.536,296.407z"/>
		<path style="fill:#37474F;" d="M266.536,296.407l-15.047-18.027c-0.095-0.114-0.187-0.195-0.271-0.244
			c-0.307-0.178-3.526-2.035-3.61-2.084c-0.309-0.18-0.53,0.059-0.531,0.651l-0.08,36.431c-0.001,0.308,0.048,0.486,0.132,0.535
			c0.12,0.071,3.529,2.039,3.614,2.086c0.12,0.068,0.311-0.13,0.526-0.59l2.583-5.523l1.473,5.257
			c0.058,0.207,0.158,0.35,0.287,0.429c0.295,0.18,3.489,2.014,3.623,2.092c0.295,0.17,0.733,0.012,1.153-0.471l2.084-2.395
			c0.61-0.701,0.951-1.823,0.759-2.505l-2.845-10.156c-0.191-0.682,0.342-1.546,1.191-1.93l4.219-1.907
			C266.645,297.673,266.976,296.935,266.536,296.407z"/>
		<path id="XMLID_314_" style="fill:#455A64;" d="M250.609,315.219l0.08-36.43c0.002-0.753,0.36-0.936,0.801-0.408l15.047,18.027
			c0.44,0.528,0.109,1.267-0.74,1.65l-4.219,1.907c-0.849,0.384-1.382,1.248-1.191,1.93l2.845,10.156
			c0.191,0.682-0.149,1.803-0.759,2.505l-2.084,2.395c-0.611,0.702-1.26,0.717-1.451,0.035l-2.845-10.156
			c-0.191-0.682-0.643-0.6-1.009,0.182l-3.813,8.155C250.902,315.948,250.607,315.972,250.609,315.219z"/>
		<path style="fill:#263238;" d="M259.173,317.382c-0.46-0.263-3.283-1.886-3.564-2.054c-0.126-0.078-0.227-0.221-0.287-0.43
			l-1.469-5.253l1.23-2.633c0.364-0.782,0.818-0.866,1.009-0.185l2.842,10.154C258.988,317.167,259.065,317.298,259.173,317.382z"/>
	</g>
</g>
<g id="Character">
	<g id="Character_6_">
		<g id="Bottom_2_">
			<g>
				<path style="fill:#C8856A;" d="M338.066,386.159l-8.242-16.239l-16.591,9.71l20.452,24.143c0,0,10.137-0.938,11.77-6.227
					C347.086,392.257,340.858,387.918,338.066,386.159z"/>
				<g>
					<path style="fill:#263238;" d="M349.753,392.536c1.011,0.692,1.631,1.522,2.299,2.513c0.668,0.991,0.461,5.799,1.099,8.029
						c0.638,2.23,1.131,2.825,2.197,5.621c1.181,3.099,3.367,5.929,0.899,13.892c-2.5,8.07-6.424,11.759-9.761,13.705
						c-1.754,1.023-4.024,0.976-4.024,0.976s-4.373-1.653-3.702-4.239C339.43,430.447,349.753,392.536,349.753,392.536z"/>
					<path id="XMLID_939_" style="fill:#BA68C8;" d="M330.565,401.278c0.121,0.82,1.268,2.081,1.734,2.751
						c1.568,2.253,2.289,5.299,2.834,7.962c2.579,12.603-2.431,19.009,4.352,23.736c1.966,1.237,6.042,0.898,12.238-7.046
						c3.165-4.058,4.972-12.402,3.738-16.181c-1.235-3.778-2.924-6.239-3.721-9.146c-0.796-2.906-0.382-8.323-1.986-10.819
						c-0.941-1.465-2.472-2.495-3.935-3.385c-1.203-0.731-3.834-1.694-5.062-2.392c-1.327-0.754-1.902-1.49-2.691-0.6l1.416,1.75
						c2.212,3.061,1.595,3.509,1.542,5.139c-0.055,1.699,0.512,3.498,0.822,5.189c-1.573-1.984-2.216-3.718-3.933-3.413
						c-1.607,0.285-1.922,0.221-4.383,2.529C331.069,399.662,330.458,400.549,330.565,401.278z"/>
					<path id="XMLID_938_" style="opacity:0.4;" d="M330.565,401.278c0.121,0.82,1.268,2.081,1.734,2.751
						c1.568,2.253,2.289,5.299,2.834,7.962c2.579,12.603-2.431,19.009,4.352,23.736c1.966,1.237,6.042,0.898,12.238-7.046
						c3.165-4.058,4.972-12.402,3.738-16.181c-1.235-3.778-2.924-6.239-3.721-9.146c-0.796-2.906-0.382-8.323-1.986-10.819
						c-0.941-1.465-2.472-2.495-3.935-3.385c-1.203-0.731-3.834-1.694-5.062-2.392c-1.327-0.754-1.902-1.49-2.691-0.6l1.416,1.75
						c2.212,3.061,1.595,3.509,1.542,5.139c-0.055,1.699,0.512,3.498,0.822,5.189c-1.573-1.984-2.216-3.718-3.933-3.413
						c-1.607,0.285-1.922,0.221-4.383,2.529C331.069,399.662,330.458,400.549,330.565,401.278z"/>
					<path style="opacity:0.3;" d="M351.723,428.681c3.165-4.058,4.972-12.402,3.738-16.181c-0.446-1.366-0.952-2.556-1.454-3.661
						c0.053,0.255,0.129,0.516,0.164,0.734c0.077,0.488,0.141,0.979,0.188,1.471c0.182,1.893,0.175,3.956-0.627,5.721
						c-0.714,1.57-2.359,5.51-4.48,5.597c-1.201,0.049-2.215-1.125-2.677-2.468c-0.195-0.567-0.517-2.096-0.517-2.096
						s-3.13,0.675-5.512,2.25c-3.076,2.035-2.964,2.485-2.964,2.485c0.129,0.695,0.268,1.875,0.1,2.7
						c-0.168,0.827-0.636,2.162-1.145,2.69c-0.246,0.255-0.512,0.455-0.783,0.628c0.126,2.906,0.887,5.192,3.732,7.175
						C341.451,436.964,345.527,436.624,351.723,428.681z"/>
					<g>
						<path style="fill:#37474F;" d="M335.133,411.991c0.8,3.91,0.869,7.222,0.787,10.074c1.158,3.227,2.173,3.131,2.311,1.46
							c0.139-1.681-2.089-8.613-3.748-14.347C334.737,410.129,334.948,411.082,335.133,411.991z"/>
						<path style="fill:#37474F;" d="M342.803,391.782c0.186-1.572-0.307-3.188-1.234-4.612c-0.303-0.143-0.587-0.283-0.813-0.411
							c-1.327-0.754-1.902-1.49-2.691-0.6l1.416,1.751c2.212,3.061,1.595,3.509,1.542,5.139c-0.055,1.699,0.512,3.497,0.822,5.189
							c1.284,5.472,2.457,7.3,3.062,12.469c0.606,5.169-0.43,8.643,0.3,8.936c0.73,0.293,2.205-0.294,2.473-4.437
							c0.267-4.143-1.56-11.104-2.85-14.402C343.541,397.504,342.541,393.992,342.803,391.782z"/>
					</g>
					<g>
						<g>
							<path style="fill:#EBEBEB;" d="M346.424,418.16c-0.07,0.071-0.16,0.123-0.264,0.144c-3.628,0.747-5.562,1.659-8.263,4.84
								c-0.192,0.21-0.508,0.244-0.727,0.06c-0.217-0.184-0.244-0.51-0.06-0.727c2.854-3.36,4.982-4.389,8.841-5.183
								c0.278-0.057,0.551,0.122,0.609,0.401C346.597,417.87,346.54,418.043,346.424,418.16z"/>
						</g>
						<g>
							<path style="fill:#EBEBEB;" d="M345.77,413.85c-0.068,0.07-0.157,0.121-0.258,0.145c-3.753,0.868-5.837,1.932-8.703,5.282
								c-0.216,0.242-0.525,0.248-0.746,0.058c-0.221-0.19-0.248-0.525-0.058-0.746c3.025-3.528,5.291-4.705,9.27-5.626
								c0.284-0.066,0.569,0.111,0.635,0.396C345.95,413.543,345.892,413.725,345.77,413.85z"/>
						</g>
						<g>
							<path style="fill:#EBEBEB;" d="M345.861,409.103c-0.075,0.076-0.172,0.133-0.285,0.159c-4.139,0.96-6.568,2.244-9.727,5.937
								c-0.198,0.24-0.578,0.273-0.823,0.063c-0.244-0.21-0.273-0.578-0.063-0.823c3.327-3.881,5.964-5.297,10.351-6.314
								c0.314-0.073,0.627,0.123,0.7,0.437C346.06,408.764,345.996,408.965,345.861,409.103z"/>
						</g>
						<g>
							<path style="fill:#EBEBEB;" d="M345.173,405.048c-0.073,0.075-0.169,0.13-0.279,0.156c-4.058,0.938-6.408,2.171-9.513,5.799
								c-0.198,0.23-0.566,0.268-0.806,0.062c-0.24-0.205-0.268-0.566-0.062-0.806c3.257-3.808,5.823-5.174,10.124-6.169
								c0.307-0.071,0.614,0.121,0.686,0.429C345.369,404.716,345.306,404.913,345.173,405.048z"/>
						</g>
						<g>
							<path style="fill:#EBEBEB;" d="M343.686,401.099c-0.073,0.075-0.169,0.13-0.279,0.156c-4.058,0.941-6.406,2.17-9.513,5.8
								c-0.203,0.235-0.566,0.268-0.806,0.062c-0.24-0.205-0.268-0.566-0.062-0.806c3.263-3.81,5.822-5.174,10.123-6.171
								c0.307-0.071,0.615,0.121,0.687,0.429C343.881,400.767,343.818,400.964,343.686,401.099z"/>
						</g>
					</g>
				</g>
			</g>
			<polygon style="fill:#C8856A;" points="333.59,387.459 322.848,396.24 316.774,400.051 323.708,413.164 343.247,403.81 			"/>
			<g>
				<path style="fill:#455A64;" d="M355.477,328.815c0,0-39.093-6.479-55.822-6.373c-17.07,0.108-18.655,12.926-14.384,20.776
					c8.179,15.031,36.617,46.908,36.617,46.908s9.552-4.375,12.487-12.639l-6.488-14.874l20.703,6.592l2.388-2.91L355.477,328.815z"
					/>
				<path style="fill:#37474F;" d="M324.483,349.946c4.265,6.358,6.939,11.073,8.619,14.327l-5.215-1.661
					c-5.878-14.004-7.084-18.086-16.477-24.648C311.41,337.965,318.149,340.504,324.483,349.946z"/>
				<path style="fill:#455A64;" d="M355.477,328.815l60.274,11.05c0,0,4.774,22.213,0.16,36.093
					c-4.514,13.579-17.901,17.471-24.343,17.969c-9.214,0.712-19.912-2.137-19.912-2.137s-5.308,4.154-10.693,6.295
					c-5.386,2.14-28.957,12.014-28.957,12.014s-6.621-5.604-5.963-17.283l24.935-26.521L355.477,328.815z"/>
				<path style="fill:#37474F;" d="M332.006,410.098c0,0-1.279-0.592-3.113-4.059c6.094-1.438,26.166-9.294,32.651-12.042
					c11.539-4.891,15.101-10.057,15.101-10.057s0.079,3.436-4.99,7.85c0,0-5.308,4.154-10.693,6.295
					C355.577,400.225,332.006,410.098,332.006,410.098z"/>
				<path style="fill:#37474F;" d="M383.99,389.579c5.765,0.927,21.293-1.93,26.337-12.872c4.939-10.712,3.275-23.496,2.174-34.496
					l1.862,0.436l3.267,0.886c0.862,9.775,1.824,21.331-1.029,32.283c-3.606,13.848-18.592,17.612-25.035,18.11
					c-9.214,0.712-19.912-2.137-19.912-2.137l3.064-4.735C374.719,387.054,378.186,388.646,383.99,389.579z"/>
				<path style="fill:#37474F;" d="M348.299,369.144c0,0,1.086-1.294,3.366-3.968c2.28-2.674,5.96-7.742,15.422-7.378
					c9.462,0.364,27.652,2.002,27.652,2.002s-18.974-3.23-25.524-4.322c-6.551-1.092-10.917-0.333-14.653,2.98
					c-3.736,3.313-9.53,9.615-9.53,9.615L348.299,369.144z"/>
				<path style="fill:#37474F;" d="M360.978,357.013c0,0-4.744-4.911-4.426-13.134c0,0-2.268,8.636,1.356,14.907L360.978,357.013z"
					/>
			</g>
			<g>
				<g>
					<path style="fill:#263238;" d="M292.147,406.883c-4.598,1.812-7.438,3.638-9.562,6.414c-2.124,2.776-2.772,5.588-0.755,8.951
						c2.018,3.363,5.726,7.311,10.128,7.054c4.403-0.258,7.113-1.355,11.198-3.57L292.147,406.883z"/>
					<path id="XMLID_937_" style="fill:#BA68C8;" d="M328.892,410.773c0.064,1.377-5.743,4.125-11.777,7.003
						c-6.467,3.086-8.059,5.095-13.339,7.692c-6.032,2.969-8.324,3.14-13.006,1.839c-4.682-1.3-10.458-8.002-6.435-14.164
						c3.28-5.024,7.529-6.404,13.976-8.1c6.665-1.753,10.212-2.981,15.082-4.873c4.655-1.808,8.493-5.057,9.455-3.93
						c-0.665,0.323-5.536,3.329-4.615,4.147c0.225,0.421,0.922,0.29,2.12-0.205c0.522-0.216,1.127-0.347,1.669-0.081
						c0.547,0.269,0.897,0.877,1.204,1.448c0.747,1.387,0.843,2.24,1.46,3.694c0.36,0.85,0.21,0.358,0.546,1.217
						c0.376,0.964,1.093,2.417,0.999,3.299c-0.057,0.531-0.443,0.701-0.853,0.961c-0.409,0.259-0.986,0.574-1.372,0.871
						c-0.154,0.119-0.431,0.514-0.343,0.716c0.146,0.337,0.987,0.177,1.336,0.032c0.419-0.175,0.937-0.29,1.363-0.448
						C326.767,411.742,327.826,411.27,328.892,410.773z"/>
					<path id="XMLID_936_" style="opacity:0.4;" d="M328.892,410.773c0.064,1.377-5.743,4.125-11.777,7.003
						c-6.467,3.086-8.059,5.095-13.339,7.692c-6.032,2.969-8.324,3.14-13.006,1.839c-4.682-1.3-10.458-8.002-6.435-14.164
						c3.28-5.024,7.529-6.404,13.976-8.1c6.665-1.753,10.212-2.981,15.082-4.873c4.655-1.808,8.493-5.057,9.455-3.93
						c-0.665,0.323-5.536,3.329-4.615,4.147c0.225,0.421,0.922,0.29,2.12-0.205c0.522-0.216,1.127-0.347,1.669-0.081
						c0.547,0.269,0.897,0.877,1.204,1.448c0.747,1.387,0.843,2.24,1.46,3.694c0.36,0.85,0.21,0.358,0.546,1.217
						c0.376,0.964,1.093,2.417,0.999,3.299c-0.057,0.531-0.443,0.701-0.853,0.961c-0.409,0.259-0.986,0.574-1.372,0.871
						c-0.154,0.119-0.431,0.514-0.343,0.716c0.146,0.337,0.987,0.177,1.336,0.032c0.419-0.175,0.937-0.29,1.363-0.448
						C326.767,411.742,327.826,411.27,328.892,410.773z"/>
					<path style="opacity:0.3;" d="M305.848,424.47c-0.867,0.437-6.343,2.982-8.063,1.456c-1.861-1.652,2.532-4.288,2.532-4.288
						s0.67-4.131-4.316-10.207c-0.864,0.67-4.465,0.636-4.415-1.484c0.049-2.106,6.083-4.716,6.17-4.755
						c-6.173,1.652-10.236,3.074-13.421,7.952c-4.023,6.162,1.753,12.864,6.435,14.164c4.682,1.301,6.974,1.129,13.006-1.839
						C304.38,425.172,305.317,424.781,305.848,424.47z"/>
					<path style="fill:#37474F;" d="M299.729,421.225c-2.284,0.763-0.717,2.839,2.628,2.166c5.015-1.01,9.178-3.854,14.759-5.615
						c6.034-2.879,12.179-5.559,11.783-7.084c-1.08,0.405-3.389,1.367-3.389,1.367c-0.453,0.192-1.618,0.626-1.618,0.626
						c-4.573,1.975-9.632,5.151-14.578,6.491C304.955,420.358,302.013,420.462,299.729,421.225z"/>
					<path style="fill:#37474F;" d="M296.334,412.214c2.09-1.21,2.454-2.243,6.554-4.126c4.069-1.87,11.029-5.911,15.312-8.406
						c1.34-0.735,4.604-3.419,4.649-3.442c-0.709-0.808-3.321-0.062-5.934,1.586c-2.613,1.647-4.205,2.697-6.796,4.045
						c-5.031,3.023-10.769,5.063-13.642,6.913C293.602,410.634,294.244,413.423,296.334,412.214z"/>
					<g>
						<g>
							<path style="fill:#F0F0F0;" d="M296.025,411.658c0.029,0.067,0.07,0.129,0.12,0.185c0.043,0.045,3.313,3.643,3.912,10.118
								c0.031,0.319,0.287,0.571,0.572,0.566c0.286-0.004,0.493-0.265,0.464-0.583c-0.641-6.928-4.068-10.688-4.257-10.89
								c-0.214-0.23-0.543-0.242-0.734-0.023C295.956,411.196,295.933,411.447,296.025,411.658z"/>
						</g>
						<g>
							<path style="fill:#F0F0F0;" d="M300.079,408.698c0.026,0.061,0.061,0.117,0.106,0.169c0.045,0.052,3.967,4.788,4.844,11.944
								c0.043,0.315,0.302,0.561,0.587,0.547c0.285-0.015,0.485-0.285,0.445-0.602c-0.931-7.568-4.96-12.42-5.157-12.648
								c-0.209-0.238-0.538-0.262-0.737-0.053C300.012,408.22,299.983,408.479,300.079,408.698z"/>
						</g>
						<g>
							<path style="fill:#F0F0F0;" d="M309.01,420.386c0.088,0.203,0.274,0.352,0.484,0.365c0.288,0.015,0.513-0.228,0.503-0.544
								c-0.241-7.325-4.958-14.199-5.181-14.437c-0.215-0.232-0.543-0.242-0.734-0.023c-0.189,0.218-0.163,0.584,0.044,0.812
								c0.049,0.054,4.611,6.769,4.828,13.587C308.957,420.23,308.977,420.31,309.01,420.386z"/>
						</g>
						<g>
							<path style="fill:#F0F0F0;" d="M312.759,417.99c0.087,0.199,0.268,0.346,0.475,0.363c0.289,0.022,0.518-0.216,0.512-0.532
								c-0.139-8.097-5.233-13.482-5.461-13.699c-0.227-0.216-0.554-0.204-0.731,0.028c-0.177,0.233-0.135,0.603,0.091,0.812
								c0.051,0.047,4.928,5.241,5.059,12.776C312.705,417.828,312.725,417.913,312.759,417.99z"/>
						</g>
						<g>
							<path style="fill:#EBEBEB;" d="M317.618,415.936c0.085,0.196,0.263,0.343,0.468,0.362c0.288,0.027,0.52-0.207,0.519-0.523
								c-0.032-7.619-5.388-13.516-5.629-13.754c-0.221-0.223-0.55-0.218-0.732,0.009c-0.183,0.225-0.154,0.59,0.073,0.812
								c0.055,0.056,5.218,5.76,5.247,12.835C317.564,415.769,317.583,415.856,317.618,415.936z"/>
						</g>
					</g>
				</g>
			</g>
		</g>
		<g id="Top_6_">
			<g id="Arm_2_">
				<path style="fill:#C8856A;" d="M289.735,277.237l36.371,4.302c0,0,10.067-4.507,16.326-7.223
					c21.687-9.41,25.052-11.141,32.062-11.046l-11.835,24.862c0,0-14.081,5.965-27.051,10.844
					c-6.757,2.542-6.673,2.985-14.137,1.074c-5.549-1.421-8.418-2.166-16.479-4.355c-9.88-2.683-16.552-4.267-16.552-4.267
					L289.735,277.237z"/>
				<g>
					<path style="fill:#C8856A;" d="M293.903,278.046c-6.645-1.337-9.221-1.288-11.048-5.414c-1.828-4.126-2.549-4.91-3.291-5.694
						c-0.741-0.784-5.551-3.536-7.598-4.634c-1.518-0.814-2.901-0.728-5.662-1.324c-1.377-0.297-2.953-0.741-4.309-1.136
						c-1.077-0.314-2.277-0.974-3.421-0.95c-1.53,0.032-1.187,2.192-0.132,3.224c1.132,1.108,2.802,1.785,4.275,2.376
						c1.108,0.445,3.738,1.464,3.738,1.464c-0.399,0.904-1.428,2.538-1.406,3.651c0.021,1.074,0.193,1.55,2.178,3.46
						c0,0-0.881,0.954-0.664,1.874c0.217,0.92,0.94,1.684,1.532,2.31c0,0-0.552,0.632-0.552,1.51c0,0.878,1.504,2.553,3.033,3.854
						c1.56,1.697,2.887,4.299,4.329,5.641c1.442,1.341,3.513,1.743,6.936,2.014c3.423,0.27,12.235,2.458,12.235,2.458
						S300.34,279.341,293.903,278.046z"/>
					<path style="fill:#AF6152;" d="M277.25,269.116c-1.983-0.495-3.555-1.288-4.722-2.707c-1.167-1.419-2.364-3.07-2.908-2.851
						c-0.914,0.369-1.851,2.863-0.157,5.344c1.616,2.365,4.177,4.832,4.596,5.543c0.42,0.711,0.566,2.756,0.623,4.348
						c0.057,1.592,1.245,5.343,5.823,6.741c0,0-2.393,0.156-4.901-2.147c-2.509-2.303-2.069-5.946-2.332-7.476
						c-0.262-1.53-0.316-1.839-2.21-3.819c-1.894-1.98-3.948-4.108-3.142-7.224c0.806-3.116,2.134-2.379,2.794-1.752
						C271.375,263.742,274.107,268.409,277.25,269.116z"/>
					<path style="fill:#AF6152;" d="M266.454,265.959l1.809,0.434l-0.343,0.671c0,0-1.542-0.266-2.549,1.155
						C265.611,267.627,266.126,266.626,266.454,265.959z"/>
					<path style="fill:#AF6152;" d="M267.225,273.069c0.632,0.65,2.715,2.542,3.131,2.93s1.266-0.171,1.396-1.32
						c0.13-1.149-0.027-1.832-0.556-2.701c0,0,1.144,1.233,1.03,2.714c-0.115,1.48-0.905,2.015-1.501,2.091
						C270.127,276.857,268.585,274.446,267.225,273.069z"/>
					<path style="fill:#AF6152;" d="M268.093,277.254c0.467,0.494,1.221,1.061,2.541,2.399c0.764,0.775,1.223,1.297,1.769,0.967
						c0.545-0.33,1-1.987,0.359-3.06c-0.642-1.073-1.309-1.722-1.309-1.722l0.367-0.401c0,0,1.469,1.384,1.833,2.853
						c0.364,1.469-0.476,3.118-1.228,3.029c-0.751-0.089-1.165-0.539-2.215-1.692C269.161,278.475,268.093,277.254,268.093,277.254z
						"/>
					<path style="fill:#AF6152;" d="M272.025,280.947c0.269,0.352,0.457,1.336-0.188,1.654c-0.645,0.317-1.262,0.018-1.262,0.018
						s0.66,0.719,1.498,0.299c0.773-0.388,0.788-1.367,0.609-2.11L272.025,280.947z"/>
				</g>
			</g>
			<g id="XMLID_747_">
				<g>
					<path style="fill:#BA68C8;" d="M416.067,303.708c-1.351-19.719-1.299-28.24-3.25-34.694c-3-0.888-9.449-2.679-9.449-2.679
						s-15.533-0.667-21.093-2.963l-7.781-0.298c-4.229,4.061-15.344,12.714-18.952,20.922c-2.415,5.495-2.349,13.564,4.239,19.032
						c-0.09,5.863,0.992,13.259,0.992,13.259s-2.011,6.29-4.521,12.473c0.936,9.705,15.086,16.973,32.36,21.654
						c18.54,5.024,29.88-2.479,29.88-2.479S417.406,323.247,416.067,303.708z"/>
					<path style="opacity:0.6;fill:#FFFFFF;" d="M416.067,303.708c-1.351-19.719-1.299-28.24-3.25-34.694
						c-3-0.888-9.449-2.679-9.449-2.679s-15.533-0.667-21.093-2.963l-7.781-0.298c-4.229,4.061-15.344,12.714-18.952,20.922
						c-2.415,5.495-2.349,13.564,4.239,19.032c-0.09,5.863,0.992,13.259,0.992,13.259s-2.011,6.29-4.521,12.473
						c0.936,9.705,15.086,16.973,32.36,21.654c18.54,5.024,29.88-2.479,29.88-2.479S417.406,323.247,416.067,303.708z"/>
					<path style="opacity:0.3;fill:#BA68C8;" d="M375.368,306.468c0,0,4.672,6.28,14.503,5.593
						c10.143-0.709,12.457-8.992,12.457-8.992s-0.028,10.978-12.146,11.828C379.009,315.681,375.368,306.468,375.368,306.468z"/>
				</g>
			</g>
			<g>
				<g id="XMLID_944_">
					<g id="XMLID_983_">
						<path id="XMLID_984_" style="fill:#EBEBEB;" d="M387.014,361.14v1.143c0,1.153-0.616,2.222-1.611,2.798l-30.789,17.718
							c-0.498,0.288-1.057,0.43-1.617,0.43c-0.554,0-1.114-0.141-1.611-0.43l-56.48-32.607c-1.001-0.577-1.617-1.645-1.617-2.798
							v-0.786l59.708,34.473L387.014,361.14z"/>
					</g>
					<g id="XMLID_981_">
						<path id="XMLID_982_" style="fill:#FAFAFA;" d="M293.289,346.607l33.489-19.333c0.596-0.344,1.329-0.344,1.925,0
							l58.098,33.547c0.285,0.165,0.285,0.576,0,0.741l-33.803,19.519L293.289,346.607z"/>
					</g>
					<g id="XMLID_979_">
						<polygon id="XMLID_980_" style="fill:#E0E0E0;" points="353.306,378.238 371.368,367.82 318.553,337.327 300.396,347.69 
													"/>
					</g>
					<g id="XMLID_977_">
						<polygon id="XMLID_978_" style="fill:#E0E0E0;" points="362.183,349.258 361.85,349.45 352.997,354.56 337.253,345.471 
							336.925,345.284 346.112,339.981 						"/>
					</g>
					<g id="XMLID_970_">
						<polygon id="XMLID_976_" style="fill:#E6E6E6;" points="361.85,349.45 352.997,354.56 337.253,345.471 346.112,340.36 						
							"/>
					</g>
					<g id="XMLID_958_">
						<path id="XMLID_968_" style="fill:#EBEBEB;" d="M352.997,381.079v2.148c-0.554,0-1.114-0.141-1.611-0.43l-56.48-32.607
							c-1.001-0.577-1.617-1.645-1.617-2.798v-0.786L352.997,381.079z"/>
					</g>
					<g id="XMLID_953_" style="opacity:0.5;">
						<path id="XMLID_954_" style="fill:#E0E0E0;" d="M352.997,381.079v2.148c-0.554,0-1.114-0.141-1.611-0.43l-56.48-32.607
							c-1.001-0.577-1.617-1.645-1.617-2.798v-0.786L352.997,381.079z"/>
					</g>
					<g id="XMLID_951_">
						<path id="XMLID_952_" style="fill:#BA68C8;" d="M352.087,381.556c-1.069,0.413-2.284,0.334-3.296-0.255l-56.232-32.466
							c-0.989-0.571-1.668-1.549-1.86-2.674l-6.156-36.711c-0.034-0.209-0.051-0.419-0.051-0.628c0-1.023,0.407-2.001,1.131-2.719
							l58.436,33.743c0.729,0.424,1.233,1.148,1.374,1.979L352.087,381.556z"/>
					</g>
					<g id="XMLID_949_" style="opacity:0.7;">
						<path id="XMLID_950_" style="fill:#FFFFFF;" d="M352.087,381.556c-1.069,0.413-2.284,0.334-3.296-0.255l-56.232-32.466
							c-0.989-0.571-1.668-1.549-1.86-2.674l-6.156-36.711c-0.034-0.209-0.051-0.419-0.051-0.628c0-1.023,0.407-2.001,1.131-2.719
							l58.436,33.743c0.729,0.424,1.233,1.148,1.374,1.979L352.087,381.556z"/>
					</g>
					<g id="XMLID_947_">
						<path id="XMLID_948_" style="fill:#FAFAFA;" d="M352.997,381.081l-0.384,0.22c-0.17,0.096-0.345,0.181-0.526,0.255
							l-6.654-39.73c-0.141-0.831-0.645-1.555-1.374-1.979l-58.436-33.743c0.226-0.226,0.492-0.424,0.78-0.594l58.555,33.806
							c0.729,0.424,1.232,1.148,1.374,1.979L352.997,381.081z"/>
					</g>
					<g id="XMLID_945_">
						<path id="XMLID_946_" style="fill:#BA68C8;" d="M320.417,347.666c-0.412-2.458-2.95-5.723-5.668-7.292
							c-2.718-1.569-4.588-0.849-4.175,1.609c0.412,2.458,2.95,5.723,5.668,7.292C318.96,350.845,320.829,350.124,320.417,347.666z"
							/>
					</g>
				</g>
			</g>
			<g>
				<path style="fill:#C8856A;" d="M433.319,324.976c-0.6-3.952-6.438-40.699-8.174-45.652c-1.882-5.368-3.938-7.876-12.253-10.311
					c-7.763,5.308-6.234,22.795-5.231,26.813l6.062,28.877c0,0-8.644,4.111-15.615,7.324c-5.96,2.746-10.139,5.87-17.121,6.558
					c-6.983,0.688-8.3,0.31-14.273,2.915c-2.01,1.105-4.198,1.985-6.017,3.392c-2.108,2.215-4.707,3.913-6.961,5.975
					c-1.701,1.139-0.159,1.97,1.184,2.076c3.714,0.13,6.716-2.739,10.05-3.916c-0.398,1.181-0.615,2.438-0.646,3.684
					c-0.025,1.001-0.269,2.212,0.589,2.963c0.483,0.423,1.499,0.686,2.078,0.906c0,0-0.005,0.561,0.397,0.975
					c0.41,0.423,1.219,0.514,1.773,0.494c0.434-0.015,1.019-0.133,1.019-0.133c0,0.667,0.643,1.272,1.1,1.467
					c1.555,0.665,3.914,0.367,4.268,0.231c0.211-0.081,1.817-0.905,2.288-1.139c0.682-0.339,1.288-0.526,1.591-0.959
					c0.359-0.514-0.594-1.736-1.411-1.883c-0.875-0.2-2.166,0.044-2.723,0.122c0.362-0.771,0.673-1.441,0.844-2.325
					c0.764-1.174,6.087,0.14,10.851-0.589c3.598-0.551,5.75-3.207,7.372-3.911c10.763-4.673,24.982-7.501,32.019-9.58
					C435.064,336.785,434.439,332.358,433.319,324.976z"/>
				<path style="fill:#AF6152;" d="M364.969,349.027c0.373-1.954,1.171-3.863,2.021-4.769c-1.861,0.635-3.214,5.262-3.214,5.262
					L364.969,349.027z"/>
				<path style="fill:#AF6152;" d="M366.99,356.579c-0.18-0.976-0.112-1.975-0.033-2.954c0.084-0.983,0.246-1.955,0.439-2.92
					c0.21-0.953,0.416-1.94,0.857-2.851c0.436-0.886,0.962-1.8,1.818-2.328c-0.361,0.332-0.609,0.754-0.831,1.18
					c-0.232,0.422-0.426,0.863-0.583,1.315c-0.324,0.896-0.506,1.842-0.705,2.799c-0.204,0.951-0.379,1.908-0.564,2.864
					C367.22,354.642,367.044,355.598,366.99,356.579z"/>
				<path style="fill:#AF6152;" d="M370.178,357.916c-0.106-0.965-0.041-1.94,0.057-2.901c0.098-0.964,0.279-1.916,0.491-2.86
					c0.225-0.941,0.483-1.878,0.846-2.781c0.374-0.878,0.733-1.859,1.531-2.457c-0.337,0.35-0.497,0.809-0.674,1.244
					c-0.169,0.443-0.317,0.895-0.445,1.353c-0.258,0.916-0.497,1.839-0.706,2.77C370.848,354.143,370.443,356.005,370.178,357.916z"
					/>
				<path style="fill:#AF6152;" d="M378.014,355.633c-0.436,0.021-0.836,0.034-1.203,0.147c-0.387,0.084-0.666,0.273-1.154,0.419
					l0.203-0.312c0.024,0.239-0.027,0.397-0.09,0.574c-0.061,0.171-0.171,0.315-0.283,0.443c-0.226,0.257-0.516,0.43-0.825,0.515
					c0.204-0.247,0.38-0.49,0.505-0.735c0.06-0.125,0.094-0.254,0.126-0.376c0.028-0.115,0.03-0.265,0.022-0.331l-0.026-0.222
					l0.229-0.09c0.3-0.118,0.685-0.194,1.135-0.215C377.115,355.435,377.646,355.395,378.014,355.633z"/>
			</g>
			<path style="fill:#263238;" d="M404.584,212.45c7.37-2.295,14.671,6.565,13.789,13.706c3.183,2.442,4.977,11.091,0.836,15.381
				c2.418,4.452-1.111,13.159-7.191,13.964c0.886,3.862-4.172,9.549-10.312,9.81c-8.221,0.35-6.184-2.57-4.544-11.617
				C397.958,249.304,404.584,212.45,404.584,212.45z"/>
			<path style="fill:#C8856A;" d="M378.477,276.962c-7.143-1.15-3.773-5.638,1.319-10.839l11.289-3.169l9.194-0.953
				c-0.055,3.135,1.833,3.802,3.638,4.488C399.052,271.588,387.005,278.335,378.477,276.962z"/>
			<g>
				<g>
					<path style="fill:#263238;" d="M381.831,265.551c-3.009,6.906-8.652,6.686-10.836,6.27c-0.893,4.33-4.531,6.454-8.304,8.03
						c0.845,4.284-2.268,7.095-5.36,9.395c1.034,1.817,1.333,3.03,0.757,5.42c-0.576,2.39-4.276,6.57-3.573,9.4
						c-4.215-4.477-4.197-10.561-0.584-15.351c-0.7-4.193-1.197-8.38,2.701-11.019c-0.984-5.392,1.596-9.364,7.047-10.277
						c0.121-4.152,2.832-6.608,7.402-7.329c-0.99-7.224,6.388-10.09,10.971-10.233c-0.06,3.14,0.414,9.87,0.278,13.008
						L381.831,265.551z"/>
				</g>
				<g>
					<path style="fill:#37474F;" d="M374.387,207.269c9.058-4.309,23.757-2.446,25.949,3.966c3.933-0.614,7.046,1.745,9.571,6.701
						c2.584,5.073,3.888,12.781,0.598,20.93c-3.512,8.702-7.846,13.15-10.101,15.316l-0.259-10.654
						c-0.954-0.075-1.859-0.24-2.658-0.516c-4.719-1.631-20.245-8.231-23.876-14.563c0,0-7.13,3.826-7.142,3.814
						C358.962,225.249,361.996,213.163,374.387,207.269z"/>
					<g id="XMLID_8795_">
						<path id="XMLID_8796_" style="fill:#C8856A;" d="M367.668,223.514c-0.474,1.77-2.01,5.66-1.751,17.774
							c0.247,11.556,3.714,15.252,6.353,16.774c2,1.154,6.3,1.591,9.577,1.279l-0.026,9.845c0,0-0.684,1.728,6.409,2.309
							c10.763,0.883,11.972-4.764,11.972-4.764l0.281-17.505c0,0,2.885,1.853,6.213-0.938c1.979-1.66,3.64-6.657,1.157-9.302
							s-5.175-1.915-7.373,1.819c-0.815,1.384-3.141,1.1-3.562-0.716c-1.018-4.388,0.372-8.941-5.653-11.521
							c-3.514-1.505-7.855-3.56-12.02-9.563C375.286,222.132,370.009,223.865,367.668,223.514z"/>
					</g>
					<g>
						<path style="fill:#263238;" d="M386.404,236.483c0,1.016-1.002,2.018-2.017,2.018c-1.016,0-1.839-0.824-1.839-1.839
							c0-1.016,0.824-1.839,1.839-1.839C385.403,234.822,386.404,235.467,386.404,236.483z"/>
						<path style="fill:#263238;" d="M372.773,235.925c0,1.016-0.824,1.839-1.839,1.839c-1.016,0-2.065-1.049-2.065-2.065
							c0-1.016,1.049-1.614,2.065-1.614C371.95,234.086,372.773,234.909,372.773,235.925z"/>
						<g id="XMLID_8789_">
							<path id="XMLID_8790_" style="fill:#AF6152;" d="M383.369,247.563L377.761,249c0.366,1.602,1.918,2.579,3.466,2.183
								C382.777,250.786,383.736,249.166,383.369,247.563z"/>
						</g>
						<path style="fill:#FFA8A7;" d="M382.976,248.701c-1.556-0.189-2.968,0.908-3.181,2.455c0.454,0.126,0.941,0.152,1.433,0.027
							c1.145-0.294,1.964-1.257,2.167-2.387C383.258,248.757,383.121,248.718,382.976,248.701z"/>
						<g id="XMLID_6262_">
							<path id="XMLID_8788_" style="fill:#263238;" d="M368.176,232.592l3.803-1.313c-0.325-1.072-1.441-1.648-2.491-1.285
								C368.438,230.357,367.85,231.52,368.176,232.592z"/>
						</g>
						<g id="XMLID_6260_">
							<path id="XMLID_6261_" style="fill:#263238;" d="M384.37,231.308l3.371,2.196c0.647-0.915,0.416-2.149-0.516-2.755
								C386.295,230.143,385.016,230.393,384.37,231.308z"/>
						</g>
						<g id="XMLID_6258_">
							<path id="XMLID_6259_" style="fill:#AF6152;" d="M378.822,233.657l-1.254,11.937l-6.233-2.093
								C373.293,240.164,375.765,235.965,378.822,233.657z"/>
						</g>
					</g>
					<g id="XMLID_6256_">
						<path id="XMLID_6257_" style="fill:#AF6152;" d="M381.847,259.34c4.571-0.846,13.115-2.922,14.607-9.483
							c0,0,0.392,3.508-3.222,7.056c-3.781,3.711-11.384,5.087-11.384,5.087V259.34z"/>
					</g>
				</g>
			</g>
		</g>
	</g>
</g>
<g id="Speech_Bubble">
	<g id="Speech_Bubble_3_">
		<g id="Speech_Bubble_4_">
			<path id="XMLID_422_" style="fill:#BA68C8;" d="M388.739,189.467l3.261-6.132l-2.624-7.575v-4.637l8.03,4.637v4.637l-3.452,5.98
				c-0.059,0.101-0.142,0.167-0.234,0.208l0.002,0.003L388.739,189.467z"/>
			<path id="XMLID_405_" style="opacity:0.2;" d="M388.739,189.467l3.261-6.132l-2.624-7.575v-4.637l8.03,4.637v4.637l-3.452,5.98
				c-0.059,0.101-0.142,0.167-0.234,0.208l0.002,0.003L388.739,189.467z"/>
			<path id="XMLID_402_" style="fill:#BA68C8;" d="M370.761,125.625c0-1.535,1.078-3.402,2.408-4.17l1.961-1.132
				c1.329-0.768,3.485-0.768,4.815,0l30.065,17.389c1.33,0.768,2.408,2.635,2.408,4.17v42.385c0,1.536-1.078,3.403-2.408,4.17
				l-1.96,1.132c-1.33,0.768-3.486,0.768-4.816,0l-10.869-6.252l-3.445,5.968c-0.22,0.382-0.787,0.327-0.931-0.089l-3.642-10.512
				l-11.178-6.505c-1.33-0.767-2.407-2.634-2.407-4.17L370.761,125.625z"/>
			<path id="XMLID_396_" style="opacity:0.2;" d="M412.417,184.267c0,1.536-1.078,3.403-2.408,4.17l-1.96,1.132
				c-1.202,0.694-3.072,0.754-4.404,0.194c1.133,0.429,1.996-0.211,1.996-1.584l0-42.385c0-0.768-0.27-1.618-0.705-2.373
				l6.776-3.912c0.436,0.754,0.705,1.605,0.705,2.373V184.267z"/>
			<path id="XMLID_321_" style="opacity:0.3;fill:#FFFFFF;" d="M370.84,124.941c0.281-1.022,1.213-1.348,2.325-0.708l30.07,17.393
				c0.663,0.382,1.269,1.033,1.696,1.797l6.773-3.909c-0.438-0.764-1.034-1.415-1.696-1.797l-30.059-17.393
				c-1.336-0.764-3.493-0.764-4.819,0l-1.966,1.135C372.03,122.111,371.076,123.571,370.84,124.941z"/>
		</g>
		<polygon style="fill:#FAFAFA;" points="396.834,160.775 390.667,164.813 390.667,142.879 386.661,140.562 386.661,163.017 
			381.389,154.457 378.56,156.595 388.061,171.446 398.769,164.428 		"/>
	</g>
</g>
</svg>
