<svg width="200" height="200" viewBox="0 0 200 200" fill="none" xmlns="http://www.w3.org/2000/svg">
<path d="M150 15.3858C163.022 29.7314 173.108 54.1655 155.195 76.8661L161.711 84.8342L167.005 92.8023C174.549 105.433 175.855 118.405 167.005 130.651C158.046 141.009 144.606 142.205 134.424 130.651C124.243 119.097 119.356 114.316 119.356 114.316L102.658 128.659L124.243 151.368C136.053 162.922 157.421 167.263 176.372 154.157C192.881 140.141 200.249 123.463 199.994 91.6071C197.957 49.7745 170.754 27.9575 150 15.3858Z" fill="url(#paint0_linear_59857_964)"/>
<path d="M91.3059 55.8143V73.0954H54.1481C18.6058 73.0954 7.29688 131.111 52.9364 142.22C56.111 170.964 73.9385 192.418 106.25 199.824C58.4424 202.26 24.6641 179.251 7.70076 142.22C-11.9932 91.4175 7.78897 57.1677 47.6858 49.231H83.632C88.0546 50.1078 89.7935 51.4789 91.3059 55.8143Z" fill="url(#paint1_linear_59857_964)"/>
<path d="M178.124 160C154.91 175.139 126.251 180.987 107.11 175.409C91.9298 168.786 86.8969 163.67 83.4888 152.301C81.1627 139.803 83.7386 133.324 90.8195 125.21L147.836 75.8077C166.57 53.8954 161.768 24.1477 133.989 8.07874C113.626 -1.88139 89.5977 -3.47501 59.4603 8.07874C29.3229 19.6325 4.69118 50.8563 0 85.3694C12.2178 54.2938 37.0609 45.1304 59.4603 46.3257C84.3033 12.8596 124.897 17.2421 132.36 33.5767C138.208 46.3767 137.844 53.1228 128.288 63.8555L63.9402 118.835C61.3402 121.959 60.2354 123.814 59.8676 127.6C59.0807 149.087 61.3302 159.809 72.4927 175.409C86.6099 190.244 95.3645 195.239 112.812 196.923C139.972 196.532 160.695 181.894 178.124 160Z" fill="url(#paint2_radial_59857_964)"/>
<defs>
<linearGradient id="paint0_linear_59857_964" x1="151.329" y1="14.3161" x2="151.329" y2="162.199" gradientUnits="userSpaceOnUse">
<stop stop-color="#4EAD5D"/>
<stop offset="0.821498" stop-color="#157B65"/>
</linearGradient>
<linearGradient id="paint1_linear_59857_964" x1="53.1248" y1="200" x2="53.1248" y2="49.231" gradientUnits="userSpaceOnUse">
<stop stop-color="#4DAC5C"/>
<stop offset="0.716363" stop-color="#2B8D61"/>
<stop offset="1" stop-color="#157A64"/>
</linearGradient>
<radialGradient id="paint2_radial_59857_964" cx="0" cy="0" r="1" gradientUnits="userSpaceOnUse" gradientTransform="translate(23.4374 155.384) rotate(-45.7135) scale(217.061 191.199)">
<stop offset="0.12838" stop-color="#FFAB30"/>
<stop offset="0.447129" stop-color="#FB492F"/>
<stop offset="0.822134" stop-color="#FC692F"/>
</radialGradient>
</defs>
</svg>
